<?xml version="1.0" standalone="no"?>
<!DOCTYPE svg PUBLIC "-//W3C//DTD SVG 20010904//EN"
 "http://www.w3.org/TR/2001/REC-SVG-20010904/DTD/svg10.dtd">
<svg version="1.0" xmlns="http://www.w3.org/2000/svg"
 width="600.000000pt" height="600.000000pt" viewBox="0 0 600.000000 600.000000"
 preserveAspectRatio="xMidYMid meet">

<g transform="translate(0.000000,600.000000) scale(0.100000,-0.100000)"
fill="#000000" stroke="none">
<path d="M2469 4695 c-228 -43 -442 -169 -618 -365 -76 -83 -106 -100 -147
-81 -30 13 -33 61 -5 100 16 22 17 28 5 28 -8 0 -31 -23 -52 -51 -176 -235
-262 -554 -233 -869 34 -356 179 -664 436 -923 100 -101 221 -203 229 -193 8
10 15 69 7 64 -11 -6 -177 140 -255 226 -122 135 -232 326 -295 515 -47 139
-65 258 -65 429 0 221 33 362 125 547 l39 78 59 -6 c33 -4 72 -4 87 0 16 4 75
53 138 115 236 229 442 324 706 325 87 0 138 -6 212 -23 88 -22 100 -22 143
-10 l46 14 -43 18 c-158 67 -363 92 -519 62z"/>
<path d="M4248 4566 c123 -136 207 -267 275 -426 133 -313 145 -717 32 -1058
-134 -401 -451 -752 -855 -946 -105 -51 -262 -96 -268 -77 -3 8 -10 7 -25 -1
-17 -10 -140 -13 -497 -13 l-475 0 -98 27 c-135 37 -190 64 -325 160 -128 91
-277 228 -358 329 -386 483 -474 1102 -233 1627 50 109 110 198 203 301 42 46
76 88 76 93 0 15 -60 -31 -131 -102 -220 -218 -353 -605 -336 -980 20 -463
246 -911 615 -1221 209 -175 294 -223 473 -268 113 -29 116 -29 534 -36 276
-4 448 -3 501 4 193 25 490 140 665 259 274 185 504 485 613 801 66 188 80
280 80 506 0 182 -2 210 -26 310 -78 328 -224 561 -473 755 -11 8 4 -11 33
-44z"/>
<path d="M2997 4411 c-270 -59 -503 -264 -582 -513 -35 -111 -48 -230 -35
-330 12 -100 31 -164 99 -329 65 -161 80 -252 58 -359 -8 -41 -14 -76 -12 -78
1 -1 24 3 51 9 27 6 90 11 140 11 73 0 107 -6 178 -30 l88 -29 19 42 c24 55
49 151 50 195 1 75 16 78 28 5 16 -104 31 -234 31 -280 0 -36 6 -47 51 -90 28
-28 64 -72 79 -100 25 -42 30 -46 36 -30 4 11 19 48 34 81 l28 62 -42 12 c-54
16 -116 48 -116 60 0 5 21 2 48 -6 108 -34 271 -72 333 -79 127 -13 189 27
189 121 0 31 8 51 30 79 17 21 30 48 30 61 0 23 -1 23 -82 17 -101 -7 -97 4 8
22 50 9 84 21 97 34 19 19 20 24 7 74 -7 30 -10 59 -6 65 3 5 27 15 53 21 100
25 114 55 63 134 -43 67 -76 136 -88 180 -9 32 -8 48 9 88 33 86 21 180 -40
313 l-36 78 0 -118 c0 -110 -2 -123 -28 -175 -47 -96 -145 -174 -253 -200
-105 -25 -128 -64 -124 -213 1 -56 3 -116 3 -135 0 -25 -7 -40 -27 -58 -43
-37 -111 -29 -232 28 l-61 28 -64 -20 c-89 -28 -214 -24 -282 10 -65 31 -100
85 -105 159 -2 32 1 68 7 82 8 21 10 15 10 -37 1 -70 13 -107 44 -142 61 -67
200 -82 326 -35 l70 26 82 -32 c45 -17 103 -34 129 -37 68 -8 76 10 56 121
-28 147 -17 263 28 305 12 10 56 34 100 51 191 79 311 279 278 466 -5 30 -6
52 -3 48 3 -3 29 -51 57 -107 53 -105 94 -151 116 -129 33 33 -51 239 -139
345 -96 115 -236 205 -383 247 -111 31 -289 36 -403 11z m-10 -416 c39 -11 62
-27 92 -61 25 -28 53 -49 76 -55 125 -35 193 -212 131 -345 -28 -60 -96 -121
-145 -130 -20 -4 -43 -12 -51 -19 -56 -47 -143 -59 -189 -26 -17 12 -36 17
-54 14 -15 -3 -27 -7 -27 -10 0 -16 35 -65 59 -82 31 -22 46 -27 37 -12 -4 5
2 8 11 6 10 -2 20 -4 23 -4 3 -1 -2 -6 -10 -11 -12 -7 -8 -10 15 -10 23 0 27
3 15 10 -11 8 -7 10 17 8 39 -3 61 15 85 69 26 58 38 62 38 13 0 -113 -123
-178 -234 -125 -44 21 -86 78 -86 117 0 17 -5 28 -14 28 -7 0 -19 6 -25 14 -6
7 -30 17 -53 20 -124 20 -210 157 -180 287 20 86 98 171 170 185 19 4 43 21
62 45 30 38 70 64 120 80 39 11 62 10 117 -6z"/>
<path d="M2604 2695 c-74 -16 -173 -64 -230 -110 -74 -61 -144 -170 -169 -264
l-13 -50 62 -30 c141 -66 128 -65 619 -69 287 -2 447 0 447 7 0 22 -70 172
-105 227 -93 141 -255 258 -403 289 -81 18 -128 18 -208 0z"/>
<path d="M1890 1763 c-8 -3 -25 -15 -37 -26 -19 -17 -37 -20 -113 -21 -65 -1
-93 -5 -104 -16 -8 -8 -43 -71 -79 -139 l-65 -124 -25 39 c-13 22 -48 83 -77
136 -60 111 -72 118 -178 102 l-57 -9 -2 -300 c-2 -177 1 -306 7 -315 11 -18
156 -27 180 -11 10 7 16 36 20 93 l5 83 18 -32 c24 -45 55 -63 108 -63 50 0
63 10 95 70 l19 35 5 -87 c3 -48 9 -90 14 -95 8 -9 547 -16 584 -8 21 5 22 9
22 133 0 136 11 177 45 177 19 0 20 -9 25 -148 4 -117 8 -150 20 -157 20 -13
146 -13 170 0 11 6 22 26 26 45 3 19 8 35 11 35 2 0 17 -13 33 -29 57 -56 87
-63 258 -62 96 1 161 6 169 13 8 7 13 35 13 80 l0 70 59 -61 c34 -35 78 -69
104 -80 102 -44 234 -36 320 19 l46 29 31 -29 c31 -29 128 -58 149 -45 6 3
106 6 224 6 117 0 220 5 228 9 11 7 15 43 19 150 5 149 9 160 56 160 19 0 22
-8 28 -65 8 -77 18 -107 53 -158 44 -64 102 -90 205 -95 105 -5 157 10 208 63
33 34 34 36 21 71 -12 32 -11 38 8 58 24 26 28 81 9 154 -15 60 -94 142 -154
160 -87 26 -181 10 -249 -42 -32 -25 -36 -26 -41 -9 -21 66 -7 62 -181 56
-175 -6 -183 -9 -183 -71 l0 -35 -42 46 c-77 81 -192 89 -350 22 -15 -6 -17
-3 -12 22 8 39 -30 84 -100 121 -45 23 -62 27 -146 27 -118 0 -169 -22 -252
-108 l-58 -59 0 99 c0 64 -4 103 -12 111 -15 15 -152 16 -179 2 -16 -9 -19
-22 -19 -93 l0 -82 -67 0 c-85 0 -133 -22 -176 -81 -18 -24 -34 -43 -37 -43
-3 0 -17 19 -32 44 -16 27 -42 52 -67 64 -37 19 -51 20 -209 14 l-169 -6 5 57
c5 66 -9 101 -50 122 -27 14 -70 17 -98 7z m86 -68 c42 -42 12 -95 -52 -95
-23 0 -38 7 -48 22 -22 31 -20 45 9 73 31 32 59 32 91 0z m974 -273 l0 -298
-50 -2 c-47 -2 -50 -1 -50 23 l0 24 -36 -24 c-60 -41 -158 -32 -212 18 -30 28
-57 81 -66 128 -8 47 10 130 38 171 48 73 163 101 234 58 l32 -20 0 103 c0 57
3 107 7 110 3 4 28 7 55 7 l48 0 0 -298z m-1547 70 l85 -153 26 43 c13 24 53
97 88 163 l64 120 52 3 52 3 0 -276 0 -276 -52 3 -53 3 -5 170 -5 170 -65
-125 c-64 -123 -66 -125 -102 -128 l-36 -3 -69 128 -68 128 -3 -171 -2 -171
-53 1 -52 1 -3 267 -2 267 47 3 c27 2 53 -1 60 -7 6 -5 50 -79 96 -163z m1999
166 c21 -6 55 -26 76 -44 l37 -33 -33 -33 c-27 -28 -35 -31 -50 -21 -72 51
-145 61 -204 26 -131 -76 -105 -290 40 -334 51 -15 105 -2 150 36 l29 24 34
-29 c40 -34 36 -48 -29 -94 -35 -25 -53 -30 -122 -34 -96 -6 -152 12 -213 67
-58 52 -87 120 -87 206 0 103 34 167 122 234 51 38 172 53 250 29z m-1005
-138 c56 -34 63 -60 63 -240 l0 -160 -50 0 c-57 0 -51 -18 -54 160 -1 63 -5
122 -10 132 -11 23 -58 40 -90 32 -14 -3 -35 -18 -46 -31 -18 -23 -20 -41 -20
-154 0 -71 -3 -129 -7 -130 -5 0 -29 -2 -55 -4 l-48 -2 0 203 0 204 53 0 54 0
-5 -32 -4 -33 17 24 c38 51 143 67 202 31z m1449 0 c69 -34 80 -80 76 -313
l-2 -88 -47 3 c-41 3 -48 6 -54 28 -4 14 -7 20 -8 15 -2 -22 -60 -45 -113 -45
-87 0 -137 45 -138 126 0 83 61 124 185 124 41 0 75 4 75 10 0 23 -25 60 -44
66 -33 11 -85 6 -119 -11 -34 -17 -40 -13 -68 36 -29 54 169 91 257 49z m424
-30 c0 -49 -1 -50 -30 -50 -43 0 -89 -26 -100 -56 -6 -14 -10 -79 -10 -145 l0
-119 -55 0 -55 0 0 205 0 205 50 0 c50 0 50 0 50 -32 l0 -32 28 27 c30 29 66
45 100 46 20 1 22 -4 22 -49z m377 18 c48 -31 75 -84 81 -155 l4 -53 -156 0
-157 0 16 -30 c33 -65 122 -85 182 -42 l30 21 27 -27 c14 -16 26 -32 26 -38 0
-5 -16 -20 -35 -33 -43 -29 -152 -40 -209 -21 -176 58 -190 313 -21 392 59 28
159 21 212 -14z m-2661 -9 c-3 -17 -6 -110 -6 -205 l0 -174 -50 0 -50 0 0 205
0 205 56 0 57 0 -7 -31z m1403 -14 c21 -19 43 -35 49 -35 6 0 25 12 42 26 35
30 35 30 70 -34 l25 -47 -34 -52 -34 -52 -25 20 c-32 25 -35 24 -83 -11 -53
-38 -96 -46 -142 -27 -45 19 -67 61 -67 126 0 42 5 56 31 86 28 31 37 35 80
35 42 0 55 -5 88 -35z"/>
<path d="M2699 1435 c-31 -17 -53 -64 -51 -111 4 -100 94 -148 163 -86 28 25
32 35 33 84 0 31 -6 67 -13 81 -24 45 -83 59 -132 32z m79 -47 c7 -7 12 -36
12 -65 0 -52 -14 -73 -49 -73 -43 0 -68 95 -34 132 18 21 53 24 71 6z"/>
<path d="M3680 1280 c-11 -11 -20 -26 -20 -33 0 -24 36 -47 74 -47 44 0 86 36
86 75 0 24 -2 25 -60 25 -47 0 -64 -4 -80 -20z"/>
<path d="M4472 1444 c-12 -8 -29 -28 -37 -45 l-16 -29 101 0 c113 0 123 8 71
61 -34 33 -83 39 -119 13z"/>
<path d="M4743 1709 c-23 -8 -43 -38 -43 -63 0 -25 38 -56 68 -56 48 0 79 57
54 97 -12 19 -55 31 -79 22z m58 -19 c26 -14 26 -66 -1 -80 -17 -9 -19 -8 -13
7 6 17 6 17 -14 0 -25 -22 -51 -13 -59 20 -12 46 40 78 87 53z"/>
<path d="M4740 1673 c0 -15 2 -15 9 -4 5 8 16 11 25 8 9 -4 16 -2 16 3 0 6
-11 10 -25 10 -17 0 -25 -5 -25 -17z"/>
<path d="M4740 1631 c0 -5 5 -13 10 -16 6 -3 10 -2 10 4 0 5 -4 13 -10 16 -5
3 -10 2 -10 -4z"/>
</g>
</svg>
